<svg width="930" height="161" viewBox="0 0 930 161" fill="none" xmlns="http://www.w3.org/2000/svg">
<g filter="url(#filter0_d_2103_5873)">
<rect x="40" y="30.13" width="850" height="80" rx="40" fill="white" shape-rendering="crispEdges"/>
<rect x="60" y="45.13" width="50" height="50" rx="25" fill="#EB662B" fill-opacity="0.05"/>
<path d="M123.308 65.33L120.307 54.5062H122.024L124.133 62.8883H124.233L126.427 54.5062H128.128L130.322 62.8936H130.422L132.526 54.5062H134.249L131.241 65.33H129.598L127.32 57.2227H127.235L124.957 65.33H123.308ZM137.191 60.51V65.33H135.611V54.5062H137.17V58.5334H137.27C137.461 58.0965 137.751 57.7494 138.142 57.4922C138.533 57.235 139.044 57.1064 139.675 57.1064C140.232 57.1064 140.718 57.2209 141.134 57.4499C141.553 57.679 141.877 58.0207 142.106 58.4753C142.339 58.9262 142.455 59.49 142.455 60.1665V65.33H140.875V60.3567C140.875 59.7613 140.722 59.2997 140.415 58.9721C140.108 58.6409 139.682 58.4753 139.136 58.4753C138.763 58.4753 138.428 58.5545 138.132 58.7131C137.839 58.8716 137.609 59.1042 137.439 59.4107C137.274 59.7137 137.191 60.0802 137.191 60.51ZM148.063 65.4939C147.263 65.4939 146.574 65.323 145.996 64.9812C145.422 64.6359 144.978 64.1514 144.664 63.5278C144.354 62.9006 144.199 62.166 144.199 61.3239C144.199 60.4924 144.354 59.7595 144.664 59.1253C144.978 58.4911 145.415 57.9961 145.975 57.6402C146.539 57.2843 147.198 57.1064 147.952 57.1064C148.41 57.1064 148.854 57.1822 149.283 57.3337C149.713 57.4852 150.099 57.723 150.441 58.0472C150.783 58.3713 151.052 58.7924 151.249 59.3103C151.447 59.8247 151.545 60.4501 151.545 61.1865V61.7467H145.092V60.5629H149.997C149.997 60.1471 149.912 59.7789 149.743 59.4583C149.574 59.1341 149.336 58.8787 149.03 58.6919C148.727 58.5052 148.371 58.4118 147.962 58.4118C147.518 58.4118 147.131 58.5211 146.799 58.7395C146.472 58.9544 146.218 59.2363 146.038 59.5851C145.862 59.9304 145.774 60.3057 145.774 60.7108V61.6357C145.774 62.1783 145.869 62.6399 146.059 63.0204C146.253 63.401 146.523 63.6916 146.868 63.8925C147.213 64.0898 147.617 64.1884 148.078 64.1884C148.378 64.1884 148.651 64.1462 148.898 64.0616C149.144 63.9735 149.357 63.8431 149.537 63.6705C149.717 63.4979 149.854 63.2847 149.949 63.031L151.445 63.3005C151.325 63.741 151.11 64.1268 150.8 64.458C150.494 64.7857 150.108 65.0411 149.643 65.2243C149.181 65.404 148.654 65.4939 148.063 65.4939ZM153.299 65.33V57.2121H154.826V58.5017H154.911C155.059 58.0648 155.319 57.7212 155.693 57.4711C156.07 57.2174 156.496 57.0906 156.972 57.0906C157.07 57.0906 157.187 57.0941 157.321 57.1011C157.458 57.1082 157.566 57.117 157.643 57.1276V58.6391C157.58 58.6215 157.467 58.6021 157.305 58.581C157.143 58.5563 156.981 58.544 156.819 58.544C156.445 58.544 156.112 58.6232 155.82 58.7818C155.531 58.9368 155.302 59.1535 155.133 59.4319C154.964 59.7067 154.879 60.0203 154.879 60.3726V65.33H153.299ZM162.219 65.4939C161.419 65.4939 160.73 65.323 160.152 64.9812C159.578 64.6359 159.134 64.1514 158.82 63.5278C158.51 62.9006 158.355 62.166 158.355 61.3239C158.355 60.4924 158.51 59.7595 158.82 59.1253C159.134 58.4911 159.571 57.9961 160.131 57.6402C160.695 57.2843 161.354 57.1064 162.108 57.1064C162.566 57.1064 163.01 57.1822 163.439 57.3337C163.869 57.4852 164.255 57.723 164.597 58.0472C164.939 58.3713 165.208 58.7924 165.406 59.3103C165.603 59.8247 165.701 60.4501 165.701 61.1865V61.7467H159.248V60.5629H164.153C164.153 60.1471 164.068 59.7789 163.899 59.4583C163.73 59.1341 163.492 58.8787 163.186 58.6919C162.883 58.5052 162.527 58.4118 162.118 58.4118C161.674 58.4118 161.287 58.5211 160.955 58.7395C160.628 58.9544 160.374 59.2363 160.194 59.5851C160.018 59.9304 159.93 60.3057 159.93 60.7108V61.6357C159.93 62.1783 160.025 62.6399 160.216 63.0204C160.409 63.401 160.679 63.6916 161.024 63.8925C161.369 64.0898 161.773 64.1884 162.234 64.1884C162.534 64.1884 162.807 64.1462 163.054 64.0616C163.3 63.9735 163.513 63.8431 163.693 63.6705C163.873 63.4979 164.01 63.2847 164.105 63.031L165.601 63.3005C165.481 63.741 165.266 64.1268 164.956 64.458C164.65 64.7857 164.264 65.0411 163.799 65.2243C163.337 65.404 162.811 65.4939 162.219 65.4939Z" fill="#05073C"/>
<path d="M126.642 78.8726C126.583 78.3807 126.347 77.9987 125.933 77.7268C125.519 77.455 125.01 77.319 124.408 77.319C123.968 77.319 123.583 77.3902 123.253 77.5326C122.926 77.675 122.67 77.8709 122.486 78.1201C122.305 78.3693 122.214 78.6525 122.214 78.9697C122.214 79.2351 122.277 79.4633 122.403 79.6543C122.533 79.842 122.698 79.999 122.898 80.1252C123.099 80.2482 123.31 80.3502 123.53 80.4311C123.75 80.5088 123.952 80.5719 124.137 80.6205L125.146 80.8923C125.405 80.9603 125.693 81.0542 126.011 81.1739C126.331 81.2937 126.637 81.4571 126.928 81.6643C127.223 81.8682 127.465 82.1304 127.656 82.4508C127.847 82.7713 127.943 83.1645 127.943 83.6306C127.943 84.1679 127.802 84.6534 127.521 85.0871C127.242 85.5208 126.834 85.8655 126.297 86.1212C125.763 86.3769 125.114 86.5048 124.35 86.5048C123.638 86.5048 123.021 86.3899 122.5 86.1601C121.982 85.9303 121.575 85.6098 121.277 85.1988C120.982 84.7877 120.816 84.3103 120.777 83.7665H122.02C122.052 84.142 122.178 84.4527 122.398 84.6987C122.622 84.9415 122.903 85.1227 123.243 85.2425C123.586 85.359 123.955 85.4173 124.35 85.4173C124.81 85.4173 125.222 85.3428 125.588 85.1939C125.954 85.0418 126.244 84.8314 126.457 84.5628C126.671 84.2909 126.778 83.9737 126.778 83.6112C126.778 83.281 126.685 83.0124 126.501 82.8052C126.316 82.5981 126.074 82.4298 125.773 82.3003C125.472 82.1708 125.146 82.0576 124.797 81.9605L123.573 81.6109C122.797 81.3876 122.182 81.0687 121.728 80.6544C121.275 80.2401 121.049 79.698 121.049 79.028C121.049 78.4713 121.199 77.9858 121.5 77.5715C121.804 77.1539 122.212 76.8303 122.724 76.6005C123.238 76.3674 123.813 76.2509 124.447 76.2509C125.088 76.2509 125.658 76.3658 126.156 76.5956C126.655 76.8222 127.05 77.1329 127.341 77.5278C127.635 77.9227 127.791 78.3709 127.807 78.8726H126.642ZM132.894 86.4854C132.175 86.4854 131.555 86.3268 131.034 86.0096C130.516 85.6891 130.117 85.2425 129.835 84.6696C129.557 84.0934 129.418 83.4234 129.418 82.6596C129.418 81.8957 129.557 81.2225 129.835 80.6399C130.117 80.054 130.508 79.5977 131.01 79.2707C131.515 78.9406 132.104 78.7755 132.777 78.7755C133.166 78.7755 133.549 78.8403 133.928 78.9697C134.307 79.0992 134.651 79.3096 134.962 79.6009C135.273 79.889 135.52 80.2709 135.705 80.7467C135.889 81.2225 135.982 81.8083 135.982 82.5042V82.9897H130.233V81.9993H134.816C134.816 81.5785 134.732 81.2031 134.564 80.8729C134.399 80.5428 134.163 80.2822 133.855 80.0913C133.551 79.9003 133.192 79.8048 132.777 79.8048C132.321 79.8048 131.926 79.9181 131.593 80.1447C131.263 80.368 131.008 80.6593 130.83 81.0186C130.652 81.3778 130.563 81.763 130.563 82.1741V82.8344C130.563 83.3976 130.661 83.875 130.855 84.2666C131.052 84.655 131.326 84.9512 131.675 85.1551C132.025 85.3558 132.431 85.4561 132.894 85.4561C133.195 85.4561 133.467 85.414 133.71 85.3299C133.955 85.2425 134.167 85.113 134.346 84.9415C134.524 84.7667 134.661 84.5498 134.758 84.2909L135.865 84.6016C135.749 84.9771 135.553 85.3072 135.278 85.592C135.003 85.8736 134.663 86.0937 134.258 86.2523C133.854 86.4077 133.399 86.4854 132.894 86.4854ZM139.919 86.5048C139.447 86.5048 139.018 86.4158 138.633 86.2378C138.247 86.0565 137.942 85.796 137.715 85.4561C137.488 85.113 137.375 84.6987 137.375 84.2132C137.375 83.786 137.459 83.4396 137.628 83.1742C137.796 82.9056 138.021 82.6952 138.302 82.5431C138.584 82.3909 138.895 82.2777 139.235 82.2032C139.578 82.1255 139.922 82.064 140.269 82.0187C140.722 81.9605 141.089 81.9168 141.371 81.8876C141.656 81.8553 141.863 81.8019 141.992 81.7274C142.125 81.653 142.191 81.5235 142.191 81.339V81.3002C142.191 80.8211 142.06 80.4489 141.798 80.1835C141.539 79.9181 141.146 79.7854 140.618 79.7854C140.071 79.7854 139.642 79.9051 139.332 80.1447C139.021 80.3842 138.802 80.6399 138.676 80.9118L137.589 80.5234C137.783 80.0702 138.042 79.7174 138.366 79.4649C138.692 79.2092 139.048 79.0312 139.434 78.9309C139.822 78.8273 140.204 78.7755 140.579 78.7755C140.819 78.7755 141.094 78.8047 141.405 78.8629C141.719 78.9179 142.021 79.0328 142.313 79.2076C142.607 79.3824 142.852 79.6462 143.046 79.999C143.24 80.3518 143.337 80.8244 143.337 81.4167V86.33H142.191V85.3202H142.133C142.055 85.482 141.926 85.6552 141.745 85.8397C141.563 86.0241 141.322 86.1811 141.021 86.3106C140.72 86.4401 140.353 86.5048 139.919 86.5048ZM140.094 85.4755C140.547 85.4755 140.929 85.3865 141.24 85.2085C141.554 85.0305 141.79 84.8007 141.949 84.5191C142.11 84.2375 142.191 83.9413 142.191 83.6306V82.5819C142.143 82.6402 142.036 82.6936 141.871 82.7421C141.709 82.7874 141.521 82.8279 141.308 82.8635C141.097 82.8959 140.892 82.925 140.691 82.9509C140.494 82.9735 140.333 82.993 140.21 83.0091C139.913 83.048 139.634 83.1111 139.375 83.1985C139.12 83.2827 138.913 83.4105 138.754 83.582C138.599 83.7504 138.521 83.9802 138.521 84.2715C138.521 84.6696 138.668 84.9706 138.963 85.1745C139.26 85.3752 139.638 85.4755 140.094 85.4755ZM145.428 86.33V78.8726H146.535V79.999H146.613C146.749 79.63 146.995 79.3306 147.351 79.1008C147.707 78.871 148.108 78.7561 148.555 78.7561C148.639 78.7561 148.744 78.7577 148.871 78.761C148.997 78.7642 149.092 78.7691 149.157 78.7755V79.9407C149.118 79.931 149.029 79.9165 148.89 79.8971C148.754 79.8744 148.61 79.8631 148.458 79.8631C148.095 79.8631 147.772 79.9391 147.487 80.0913C147.205 80.2401 146.982 80.4473 146.817 80.7127C146.655 80.9749 146.574 81.2743 146.574 81.6109V86.33H145.428ZM153.318 86.4854C152.619 86.4854 152.017 86.3203 151.512 85.9902C151.007 85.66 150.618 85.2053 150.347 84.6259C150.075 84.0465 149.939 83.3846 149.939 82.6402C149.939 81.8828 150.078 81.2144 150.356 80.635C150.638 80.0524 151.03 79.5977 151.531 79.2707C152.036 78.9406 152.625 78.7755 153.298 78.7755C153.823 78.7755 154.295 78.8726 154.716 79.0668C155.137 79.261 155.482 79.5329 155.75 79.8825C156.019 80.232 156.186 80.6399 156.25 81.106H155.105C155.017 80.7661 154.823 80.4651 154.522 80.2029C154.224 79.9375 153.823 79.8048 153.318 79.8048C152.871 79.8048 152.48 79.9213 152.143 80.1544C151.81 80.3842 151.549 80.7095 151.361 81.1302C151.177 81.5478 151.085 82.0381 151.085 82.6013C151.085 83.1775 151.175 83.6791 151.356 84.1064C151.541 84.5336 151.8 84.8654 152.133 85.1017C152.47 85.338 152.865 85.4561 153.318 85.4561C153.616 85.4561 153.886 85.4043 154.129 85.3007C154.371 85.1972 154.577 85.0483 154.745 84.8541C154.914 84.6599 155.033 84.4268 155.105 84.1549H156.25C156.186 84.5951 156.025 84.9916 155.77 85.3444C155.517 85.694 155.182 85.9724 154.765 86.1795C154.35 86.3834 153.868 86.4854 153.318 86.4854ZM159.071 81.8439V86.33H157.925V76.3868H159.071V80.0378H159.168C159.343 79.6527 159.605 79.3468 159.955 79.1202C160.308 78.8904 160.777 78.7755 161.363 78.7755C161.871 78.7755 162.316 78.8775 162.698 79.0814C163.08 79.2821 163.376 79.5912 163.586 80.0087C163.8 80.423 163.907 80.9506 163.907 81.5915V86.33H162.761V81.6692C162.761 81.0768 162.607 80.6188 162.3 80.2952C161.996 79.9683 161.573 79.8048 161.033 79.8048C160.657 79.8048 160.321 79.8841 160.023 80.0427C159.728 80.2013 159.495 80.4327 159.324 80.737C159.155 81.0412 159.071 81.4102 159.071 81.8439ZM172.664 86.4854C172.043 86.4854 171.494 86.3284 171.018 86.0144C170.542 85.6972 170.17 85.2506 169.902 84.6744C169.633 84.0951 169.499 83.4105 169.499 82.6207C169.499 81.8375 169.633 81.1577 169.902 80.5816C170.17 80.0055 170.544 79.5604 171.023 79.2465C171.502 78.9325 172.056 78.7755 172.684 78.7755C173.169 78.7755 173.553 78.8564 173.834 79.0183C174.119 79.1769 174.336 79.3581 174.485 79.5621C174.637 79.7627 174.755 79.9278 174.839 80.0573H174.936V76.3868H176.082V86.33H174.975V85.1842H174.839C174.755 85.3202 174.635 85.4917 174.48 85.6989C174.325 85.9028 174.103 86.0856 173.815 86.2475C173.527 86.4061 173.143 86.4854 172.664 86.4854ZM172.82 85.4561C173.279 85.4561 173.668 85.3363 173.985 85.0968C174.302 84.8541 174.543 84.5191 174.708 84.0918C174.873 83.6613 174.956 83.1645 174.956 82.6013C174.956 82.0446 174.875 81.5575 174.713 81.1399C174.551 80.7192 174.312 80.3923 173.994 80.1592C173.677 79.9229 173.286 79.8048 172.82 79.8048C172.334 79.8048 171.929 79.9294 171.606 80.1786C171.285 80.4246 171.044 80.7596 170.882 81.1836C170.724 81.6044 170.644 82.077 170.644 82.6013C170.644 83.1321 170.725 83.6144 170.887 84.0481C171.052 84.4786 171.295 84.8217 171.615 85.0774C171.939 85.3299 172.34 85.4561 172.82 85.4561ZM181.466 86.4854C180.748 86.4854 180.128 86.3268 179.607 86.0096C179.089 85.6891 178.689 85.2425 178.408 84.6696C178.129 84.0934 177.99 83.4234 177.99 82.6596C177.99 81.8957 178.129 81.2225 178.408 80.6399C178.689 80.054 179.081 79.5977 179.583 79.2707C180.088 78.9406 180.677 78.7755 181.35 78.7755C181.738 78.7755 182.122 78.8403 182.501 78.9697C182.879 79.0992 183.224 79.3096 183.535 79.6009C183.845 79.889 184.093 80.2709 184.277 80.7467C184.462 81.2225 184.554 81.8083 184.554 82.5042V82.9897H178.806V81.9993H183.389C183.389 81.5785 183.305 81.2031 183.137 80.8729C182.971 80.5428 182.735 80.2822 182.428 80.0913C182.123 79.9003 181.764 79.8048 181.35 79.8048C180.893 79.8048 180.499 79.9181 180.165 80.1447C179.835 80.368 179.581 80.6593 179.403 81.0186C179.225 81.3778 179.136 81.763 179.136 82.1741V82.8344C179.136 83.3976 179.233 83.875 179.427 84.2666C179.625 84.655 179.898 84.9512 180.248 85.1551C180.597 85.3558 181.004 85.4561 181.466 85.4561C181.767 85.4561 182.039 85.414 182.282 85.3299C182.528 85.2425 182.74 85.113 182.918 84.9415C183.096 84.7667 183.234 84.5498 183.331 84.2909L184.438 84.6016C184.321 84.9771 184.125 85.3072 183.85 85.592C183.575 85.8736 183.235 86.0937 182.831 86.2523C182.426 86.4077 181.971 86.4854 181.466 86.4854ZM191.579 80.5428L190.55 80.8341C190.485 80.6625 190.39 80.4958 190.264 80.334C190.141 80.1689 189.972 80.033 189.759 79.9262C189.545 79.8194 189.272 79.766 188.938 79.766C188.482 79.766 188.102 79.8712 187.797 80.0815C187.496 80.2887 187.346 80.5525 187.346 80.8729C187.346 81.1577 187.449 81.3827 187.657 81.5478C187.864 81.7128 188.187 81.8504 188.628 81.9605L189.735 82.2323C190.401 82.3942 190.898 82.6418 191.225 82.9752C191.552 83.3053 191.715 83.7309 191.715 84.252C191.715 84.6793 191.592 85.0612 191.346 85.3978C191.104 85.7345 190.764 85.9999 190.327 86.1941C189.89 86.3883 189.382 86.4854 188.802 86.4854C188.042 86.4854 187.412 86.3203 186.914 85.9902C186.415 85.66 186.1 85.1777 185.967 84.5434L187.055 84.2715C187.158 84.6728 187.354 84.9738 187.642 85.1745C187.933 85.3752 188.314 85.4755 188.783 85.4755C189.317 85.4755 189.741 85.3622 190.055 85.1357C190.372 84.9059 190.531 84.6307 190.531 84.3103C190.531 84.0514 190.44 83.8345 190.259 83.6597C190.078 83.4817 189.799 83.349 189.424 83.2616L188.181 82.9703C187.498 82.8085 186.996 82.5576 186.676 82.2178C186.359 81.8747 186.2 81.4458 186.2 80.9312C186.2 80.5104 186.318 80.1382 186.555 79.8145C186.794 79.4908 187.119 79.2368 187.53 79.0523C187.945 78.8678 188.414 78.7755 188.938 78.7755C189.676 78.7755 190.256 78.9374 190.676 79.261C191.1 79.5847 191.401 80.012 191.579 80.5428ZM196.683 78.8726V79.8436H192.819V78.8726H196.683ZM193.945 77.086H195.091V84.1938C195.091 84.5175 195.138 84.7602 195.232 84.922C195.329 85.0806 195.452 85.1875 195.601 85.2425C195.753 85.2943 195.913 85.3202 196.081 85.3202C196.208 85.3202 196.311 85.3137 196.392 85.3007C196.473 85.2846 196.538 85.2716 196.586 85.2619L196.819 86.2912C196.742 86.3203 196.633 86.3494 196.494 86.3786C196.355 86.4109 196.178 86.4271 195.965 86.4271C195.641 86.4271 195.324 86.3575 195.013 86.2184C194.706 86.0792 194.45 85.8672 194.246 85.5823C194.045 85.2975 193.945 84.9382 193.945 84.5045V77.086ZM198.407 86.33V78.8726H199.553V86.33H198.407ZM198.99 77.6297C198.766 77.6297 198.574 77.5537 198.412 77.4015C198.253 77.2494 198.174 77.0665 198.174 76.8529C198.174 76.6393 198.253 76.4564 198.412 76.3043C198.574 76.1522 198.766 76.0761 198.99 76.0761C199.213 76.0761 199.404 76.1522 199.562 76.3043C199.724 76.4564 199.805 76.6393 199.805 76.8529C199.805 77.0665 199.724 77.2494 199.562 77.4015C199.404 77.5537 199.213 77.6297 198.99 77.6297ZM202.797 81.8439V86.33H201.651V78.8726H202.758V80.0378H202.855C203.03 79.6592 203.296 79.3549 203.652 79.1251C204.008 78.8921 204.467 78.7755 205.03 78.7755C205.535 78.7755 205.977 78.8791 206.356 79.0863C206.735 79.2902 207.029 79.6009 207.24 80.0184C207.45 80.4327 207.555 80.9571 207.555 81.5915V86.33H206.409V81.6692C206.409 81.0833 206.257 80.6269 205.953 80.3C205.649 79.9699 205.231 79.8048 204.7 79.8048C204.335 79.8048 204.008 79.8841 203.72 80.0427C203.435 80.2013 203.21 80.4327 203.045 80.737C202.88 81.0412 202.797 81.4102 202.797 81.8439ZM211.843 86.5048C211.371 86.5048 210.942 86.4158 210.557 86.2378C210.172 86.0565 209.866 85.796 209.639 85.4561C209.413 85.113 209.299 84.6987 209.299 84.2132C209.299 83.786 209.383 83.4396 209.552 83.1742C209.72 82.9056 209.945 82.6952 210.227 82.5431C210.508 82.3909 210.819 82.2777 211.159 82.2032C211.502 82.1255 211.847 82.064 212.193 82.0187C212.646 81.9605 213.013 81.9168 213.295 81.8876C213.58 81.8553 213.787 81.8019 213.916 81.7274C214.049 81.653 214.116 81.5235 214.116 81.339V81.3002C214.116 80.8211 213.984 80.4489 213.722 80.1835C213.463 79.9181 213.07 79.7854 212.542 79.7854C211.995 79.7854 211.567 79.9051 211.256 80.1447C210.945 80.3842 210.727 80.6399 210.6 80.9118L209.513 80.5234C209.707 80.0702 209.966 79.7174 210.29 79.4649C210.617 79.2092 210.973 79.0312 211.358 78.9309C211.746 78.8273 212.128 78.7755 212.504 78.7755C212.743 78.7755 213.018 78.8047 213.329 78.8629C213.643 78.9179 213.946 79.0328 214.237 79.2076C214.531 79.3824 214.776 79.6462 214.97 79.999C215.164 80.3518 215.261 80.8244 215.261 81.4167V86.33H214.116V85.3202H214.057C213.98 85.482 213.85 85.6552 213.669 85.8397C213.488 86.0241 213.246 86.1811 212.945 86.3106C212.644 86.4401 212.277 86.5048 211.843 86.5048ZM212.018 85.4755C212.471 85.4755 212.853 85.3865 213.164 85.2085C213.478 85.0305 213.714 84.8007 213.873 84.5191C214.035 84.2375 214.116 83.9413 214.116 83.6306V82.5819C214.067 82.6402 213.96 82.6936 213.795 82.7421C213.633 82.7874 213.446 82.8279 213.232 82.8635C213.022 82.8959 212.816 82.925 212.615 82.9509C212.418 82.9735 212.258 82.993 212.135 83.0091C211.837 83.048 211.559 83.1111 211.3 83.1985C211.044 83.2827 210.837 83.4105 210.678 83.582C210.523 83.7504 210.445 83.9802 210.445 84.2715C210.445 84.6696 210.592 84.9706 210.887 85.1745C211.185 85.3752 211.562 85.4755 212.018 85.4755ZM220.596 78.8726V79.8436H216.731V78.8726H220.596ZM217.858 77.086H219.003V84.1938C219.003 84.5175 219.05 84.7602 219.144 84.922C219.241 85.0806 219.364 85.1875 219.513 85.2425C219.665 85.2943 219.825 85.3202 219.994 85.3202C220.12 85.3202 220.224 85.3137 220.305 85.3007C220.385 85.2846 220.45 85.2716 220.499 85.2619L220.732 86.2912C220.654 86.3203 220.546 86.3494 220.406 86.3786C220.267 86.4109 220.091 86.4271 219.877 86.4271C219.554 86.4271 219.236 86.3575 218.926 86.2184C218.618 86.0792 218.362 85.8672 218.159 85.5823C217.958 85.2975 217.858 84.9382 217.858 84.5045V77.086ZM222.319 86.33V78.8726H223.465V86.33H222.319ZM222.902 77.6297C222.679 77.6297 222.486 77.5537 222.324 77.4015C222.166 77.2494 222.086 77.0665 222.086 76.8529C222.086 76.6393 222.166 76.4564 222.324 76.3043C222.486 76.1522 222.679 76.0761 222.902 76.0761C223.125 76.0761 223.316 76.1522 223.475 76.3043C223.637 76.4564 223.718 76.6393 223.718 76.8529C223.718 77.0665 223.637 77.2494 223.475 77.4015C223.316 77.5537 223.125 77.6297 222.902 77.6297ZM228.593 86.4854C227.92 86.4854 227.329 86.3252 226.821 86.0047C226.316 85.6843 225.921 85.236 225.637 84.6599C225.355 84.0837 225.214 83.4105 225.214 82.6402C225.214 81.8634 225.355 81.1853 225.637 80.6059C225.921 80.0265 226.316 79.5766 226.821 79.2562C227.329 78.9357 227.92 78.7755 228.593 78.7755C229.267 78.7755 229.856 78.9357 230.361 79.2562C230.869 79.5766 231.264 80.0265 231.545 80.6059C231.83 81.1853 231.972 81.8634 231.972 82.6402C231.972 83.4105 231.83 84.0837 231.545 84.6599C231.264 85.236 230.869 85.6843 230.361 86.0047C229.856 86.3252 229.267 86.4854 228.593 86.4854ZM228.593 85.4561C229.105 85.4561 229.526 85.325 229.856 85.0628C230.186 84.8007 230.43 84.456 230.589 84.0287C230.747 83.6015 230.827 83.1386 230.827 82.6402C230.827 82.1417 230.747 81.6772 230.589 81.2468C230.43 80.8163 230.186 80.4683 229.856 80.2029C229.526 79.9375 229.105 79.8048 228.593 79.8048C228.082 79.8048 227.661 79.9375 227.331 80.2029C227.001 80.4683 226.756 80.8163 226.598 81.2468C226.439 81.6772 226.36 82.1417 226.36 82.6402C226.36 83.1386 226.439 83.6015 226.598 84.0287C226.756 84.456 227.001 84.8007 227.331 85.0628C227.661 85.325 228.082 85.4561 228.593 85.4561ZM234.867 81.8439V86.33H233.722V78.8726H234.828V80.0378H234.926C235.1 79.6592 235.366 79.3549 235.722 79.1251C236.078 78.8921 236.537 78.7755 237.101 78.7755C237.606 78.7755 238.047 78.8791 238.426 79.0863C238.805 79.2902 239.099 79.6009 239.31 80.0184C239.52 80.4327 239.625 80.9571 239.625 81.5915V86.33H238.479V81.6692C238.479 81.0833 238.327 80.6269 238.023 80.3C237.719 79.9699 237.301 79.8048 236.77 79.8048C236.405 79.8048 236.078 79.8841 235.79 80.0427C235.505 80.2013 235.28 80.4327 235.115 80.737C234.95 81.0412 234.867 81.4102 234.867 81.8439ZM247.001 80.5428L245.972 80.8341C245.907 80.6625 245.812 80.4958 245.686 80.334C245.563 80.1689 245.394 80.033 245.181 79.9262C244.967 79.8194 244.694 79.766 244.36 79.766C243.904 79.766 243.523 79.8712 243.219 80.0815C242.918 80.2887 242.768 80.5525 242.768 80.8729C242.768 81.1577 242.871 81.3827 243.078 81.5478C243.286 81.7128 243.609 81.8504 244.049 81.9605L245.156 82.2323C245.823 82.3942 246.32 82.6418 246.647 82.9752C246.974 83.3053 247.137 83.7309 247.137 84.252C247.137 84.6793 247.014 85.0612 246.768 85.3978C246.526 85.7345 246.186 85.9999 245.749 86.1941C245.312 86.3883 244.804 86.4854 244.224 86.4854C243.464 86.4854 242.834 86.3203 242.336 85.9902C241.837 85.66 241.522 85.1777 241.389 84.5434L242.476 84.2715C242.58 84.6728 242.776 84.9738 243.064 85.1745C243.355 85.3752 243.735 85.4755 244.205 85.4755C244.739 85.4755 245.163 85.3622 245.477 85.1357C245.794 84.9059 245.953 84.6307 245.953 84.3103C245.953 84.0514 245.862 83.8345 245.681 83.6597C245.499 83.4817 245.221 83.349 244.846 83.2616L243.603 82.9703C242.92 82.8085 242.418 82.5576 242.098 82.2178C241.781 81.8747 241.622 81.4458 241.622 80.9312C241.622 80.5104 241.74 80.1382 241.976 79.8145C242.216 79.4908 242.541 79.2368 242.952 79.0523C243.367 78.8678 243.836 78.7755 244.36 78.7755C245.098 78.7755 245.678 78.9374 246.098 79.261C246.522 79.5847 246.823 80.012 247.001 80.5428Z" fill="#717171"/>
<rect x="284.34" y="45.13" width="50" height="50" rx="25" fill="#EB662B" fill-opacity="0.05"/>
<path d="M347.648 64.33L344.647 53.5062H346.364L348.473 61.8883H348.573L350.767 53.5062H352.468L354.662 61.8936H354.762L356.866 53.5062H358.589L355.581 64.33H353.938L351.66 56.2227H351.575L349.297 64.33H347.648ZM361.531 59.51V64.33H359.951V53.5062H361.51V57.5334H361.61C361.801 57.0965 362.091 56.7494 362.482 56.4922C362.873 56.235 363.384 56.1064 364.015 56.1064C364.572 56.1064 365.058 56.2209 365.474 56.4499C365.893 56.679 366.217 57.0207 366.446 57.4753C366.679 57.9262 366.795 58.49 366.795 59.1665V64.33H365.215V59.3567C365.215 58.7613 365.061 58.2997 364.755 57.9721C364.448 57.6409 364.022 57.4753 363.476 57.4753C363.102 57.4753 362.768 57.5545 362.472 57.7131C362.179 57.8716 361.949 58.1042 361.779 58.4107C361.614 58.7137 361.531 59.0802 361.531 59.51ZM372.402 64.4939C371.603 64.4939 370.914 64.323 370.336 63.9812C369.762 63.6359 369.318 63.1514 369.004 62.5278C368.694 61.9006 368.539 61.166 368.539 60.3239C368.539 59.4924 368.694 58.7595 369.004 58.1253C369.318 57.4911 369.755 56.9961 370.315 56.6402C370.879 56.2843 371.537 56.1064 372.291 56.1064C372.75 56.1064 373.193 56.1822 373.623 56.3337C374.053 56.4852 374.439 56.723 374.781 57.0472C375.123 57.3713 375.392 57.7924 375.589 58.3103C375.787 58.8247 375.885 59.4501 375.885 60.1865V60.7467H369.432V59.5629H374.337C374.337 59.1471 374.252 58.7789 374.083 58.4583C373.914 58.1341 373.676 57.8787 373.37 57.6919C373.067 57.5052 372.711 57.4118 372.302 57.4118C371.858 57.4118 371.471 57.5211 371.139 57.7395C370.812 57.9544 370.558 58.2363 370.378 58.5851C370.202 58.9304 370.114 59.3057 370.114 59.7108V60.6357C370.114 61.1783 370.209 61.6399 370.399 62.0204C370.593 62.401 370.863 62.6916 371.208 62.8925C371.553 63.0898 371.957 63.1884 372.418 63.1884C372.718 63.1884 372.991 63.1462 373.238 63.0616C373.484 62.9735 373.697 62.8431 373.877 62.6705C374.057 62.4979 374.194 62.2847 374.289 62.031L375.785 62.3005C375.665 62.741 375.45 63.1268 375.14 63.458C374.834 63.7857 374.448 64.0411 373.983 64.2243C373.521 64.404 372.994 64.4939 372.402 64.4939ZM379.219 59.51V64.33H377.639V56.2121H379.155V57.5334H379.256C379.443 57.1035 379.735 56.7582 380.133 56.4975C380.535 56.2368 381.041 56.1064 381.65 56.1064C382.203 56.1064 382.688 56.2227 383.103 56.4552C383.519 56.6843 383.842 57.026 384.071 57.4805C384.3 57.9351 384.414 58.497 384.414 59.1665V64.33H382.834V59.3567C382.834 58.7683 382.681 58.3085 382.374 57.9773C382.068 57.6426 381.647 57.4753 381.111 57.4753C380.745 57.4753 380.419 57.5545 380.133 57.7131C379.851 57.8716 379.628 58.1042 379.462 58.4107C379.3 58.7137 379.219 59.0802 379.219 59.51Z" fill="#05073C"/>
<path d="M347.515 86.33V76.6255H353.334V77.668H348.69V80.947H352.898V81.9895H348.69V86.33H347.515ZM357.712 86.4817C357.011 86.4817 356.406 86.3269 355.898 86.0173C355.392 85.7045 355.002 85.2686 354.727 84.7094C354.456 84.1471 354.32 83.4932 354.32 82.7477C354.32 82.0021 354.456 81.3451 354.727 80.7764C355.002 80.2047 355.384 79.7592 355.874 79.4402C356.367 79.1179 356.942 78.9568 357.599 78.9568C357.978 78.9568 358.352 79.02 358.722 79.1464C359.091 79.2727 359.428 79.4781 359.731 79.7624C360.034 80.0435 360.276 80.4163 360.456 80.8807C360.636 81.3451 360.726 81.9168 360.726 82.596V83.0699H355.116V82.1032H359.589C359.589 81.6926 359.507 81.3261 359.343 81.0039C359.181 80.6817 358.951 80.4274 358.651 80.241C358.354 80.0546 358.003 79.9614 357.599 79.9614C357.153 79.9614 356.768 80.072 356.443 80.2931C356.12 80.5111 355.872 80.7954 355.699 81.146C355.525 81.4967 355.438 81.8726 355.438 82.2738V82.9183C355.438 83.4679 355.533 83.9339 355.722 84.3161C355.915 84.6952 356.182 84.9843 356.523 85.1833C356.864 85.3791 357.261 85.4771 357.712 85.4771C358.006 85.4771 358.272 85.436 358.509 85.3539C358.749 85.2686 358.956 85.1422 359.129 84.9748C359.303 84.8042 359.437 84.5925 359.532 84.3398L360.612 84.6431C360.499 85.0095 360.308 85.3318 360.039 85.6098C359.771 85.8846 359.439 86.0994 359.044 86.2542C358.649 86.4058 358.205 86.4817 357.712 86.4817ZM362.579 86.33V76.6255H363.697V80.2078H363.792C363.874 80.0815 363.988 79.9203 364.133 79.7245C364.282 79.5255 364.493 79.3486 364.768 79.1938C365.046 79.0358 365.422 78.9568 365.896 78.9568C366.509 78.9568 367.049 79.1101 367.517 79.4165C367.984 79.7229 368.349 80.1573 368.611 80.7196C368.873 81.2819 369.004 81.9453 369.004 82.7098C369.004 83.4806 368.873 84.1487 368.611 84.7142C368.349 85.2765 367.986 85.7124 367.521 86.022C367.057 86.3284 366.521 86.4817 365.915 86.4817C365.447 86.4817 365.073 86.4043 364.792 86.2495C364.511 86.0915 364.294 85.913 364.143 85.714C363.991 85.5118 363.874 85.3444 363.792 85.2117H363.659V86.33H362.579ZM363.678 82.6908C363.678 83.2405 363.759 83.7254 363.92 84.1455C364.081 84.5625 364.316 84.8895 364.626 85.1264C364.936 85.3602 365.315 85.4771 365.763 85.4771C366.231 85.4771 366.621 85.3539 366.934 85.1075C367.25 84.8579 367.487 84.5231 367.644 84.1029C367.806 83.6796 367.886 83.2089 367.886 82.6908C367.886 82.179 367.807 81.7178 367.649 81.3072C367.494 80.8933 367.259 80.5664 366.943 80.3263C366.63 80.083 366.237 79.9614 365.763 79.9614C365.308 79.9614 364.926 80.0767 364.617 80.3073C364.307 80.5348 364.073 80.8538 363.915 81.2645C363.757 81.672 363.678 82.1475 363.678 82.6908ZM370.715 86.33V79.0516H371.795V80.151H371.871C372.004 79.7908 372.244 79.4986 372.592 79.2743C372.939 79.05 373.331 78.9379 373.767 78.9379C373.849 78.9379 373.951 78.9395 374.075 78.9426C374.198 78.9458 374.291 78.9505 374.354 78.9568V80.0941C374.316 80.0846 374.229 80.0704 374.094 80.0514C373.961 80.0293 373.82 80.0183 373.672 80.0183C373.318 80.0183 373.002 80.0925 372.724 80.241C372.449 80.3863 372.231 80.5885 372.07 80.8475C371.912 81.1034 371.833 81.3956 371.833 81.7241V86.33H370.715ZM380.267 83.3542V79.0516H381.385V86.33H380.267V85.098H380.191C380.02 85.4676 379.755 85.7819 379.395 86.041C379.035 86.2968 378.58 86.4248 378.03 86.4248C377.575 86.4248 377.171 86.3253 376.817 86.1263C376.463 85.9241 376.185 85.6208 375.983 85.2165C375.781 84.8089 375.68 84.2956 375.68 83.6764V79.0516H376.798V83.6006C376.798 84.1313 376.947 84.5546 377.244 84.8705C377.544 85.1864 377.926 85.3444 378.39 85.3444C378.668 85.3444 378.951 85.2733 379.239 85.1312C379.529 84.989 379.772 84.771 379.968 84.4772C380.167 84.1835 380.267 83.8091 380.267 83.3542ZM385.575 86.5006C385.114 86.5006 384.695 86.4137 384.319 86.24C383.943 86.0631 383.645 85.8088 383.424 85.4771C383.203 85.1422 383.092 84.7379 383.092 84.264C383.092 83.847 383.174 83.509 383.339 83.25C383.503 82.9878 383.722 82.7824 383.997 82.6339C384.272 82.4855 384.575 82.3749 384.907 82.3023C385.242 82.2264 385.578 82.1664 385.916 82.1222C386.359 82.0653 386.717 82.0227 386.992 81.9942C387.27 81.9627 387.472 81.9105 387.598 81.8379C387.728 81.7652 387.793 81.6389 387.793 81.4588V81.4209C387.793 80.9533 387.665 80.5901 387.409 80.331C387.156 80.072 386.772 79.9425 386.257 79.9425C385.724 79.9425 385.305 80.0593 385.002 80.2931C384.699 80.5269 384.485 80.7764 384.362 81.0418L383.301 80.6627C383.49 80.2204 383.743 79.8761 384.059 79.6297C384.378 79.3801 384.725 79.2064 385.101 79.1085C385.48 79.0074 385.853 78.9568 386.22 78.9568C386.453 78.9568 386.722 78.9853 387.025 79.0421C387.332 79.0958 387.627 79.208 387.911 79.3786C388.199 79.5492 388.437 79.8066 388.627 80.151C388.816 80.4953 388.911 80.9565 388.911 81.5346V86.33H387.793V85.3444H387.736C387.66 85.5024 387.534 85.6714 387.357 85.8514C387.18 86.0315 386.945 86.1847 386.651 86.3111C386.357 86.4374 385.998 86.5006 385.575 86.5006ZM385.746 85.496C386.188 85.496 386.561 85.4092 386.864 85.2354C387.17 85.0617 387.401 84.8374 387.556 84.5625C387.714 84.2877 387.793 83.9987 387.793 83.6954V82.6719C387.745 82.7287 387.641 82.7808 387.48 82.8282C387.322 82.8725 387.139 82.9119 386.93 82.9467C386.725 82.9783 386.524 83.0067 386.329 83.032C386.136 83.0541 385.979 83.0731 385.859 83.0889C385.569 83.1268 385.297 83.1884 385.044 83.2737C384.795 83.3558 384.593 83.4806 384.438 83.648C384.286 83.8123 384.21 84.0366 384.21 84.3209C384.21 84.7094 384.354 85.0032 384.642 85.2022C384.932 85.3981 385.3 85.496 385.746 85.496ZM390.952 86.33V79.0516H392.033V80.151H392.108C392.241 79.7908 392.481 79.4986 392.829 79.2743C393.176 79.05 393.568 78.9379 394.004 78.9379C394.086 78.9379 394.189 78.9395 394.312 78.9426C394.435 78.9458 394.528 78.9505 394.591 78.9568V80.0941C394.554 80.0846 394.467 80.0704 394.331 80.0514C394.198 80.0293 394.058 80.0183 393.909 80.0183C393.555 80.0183 393.239 80.0925 392.961 80.241C392.687 80.3863 392.469 80.5885 392.307 80.8475C392.149 81.1034 392.071 81.3956 392.071 81.7241V86.33H390.952ZM396.859 89.0594C396.669 89.0594 396.5 89.0436 396.352 89.012C396.203 88.9836 396.101 88.9552 396.044 88.9267L396.328 87.9411C396.6 88.0106 396.84 88.0359 397.048 88.0169C397.257 87.998 397.442 87.9048 397.603 87.7374C397.767 87.5731 397.917 87.3062 398.053 86.9366L398.261 86.3679L395.57 79.0516H396.783L398.792 84.8516H398.868L400.877 79.0516H402.09L399.001 87.3915C398.862 87.7674 398.689 88.0785 398.484 88.3249C398.279 88.5745 398.04 88.7593 397.769 88.8794C397.5 88.9994 397.197 89.0594 396.859 89.0594ZM410.466 86.4627C409.752 86.4627 409.143 86.2684 408.641 85.8799C408.139 85.4881 407.755 84.9211 407.49 84.1787C407.224 83.4332 407.092 82.5329 407.092 81.4777C407.092 80.4289 407.224 79.5334 407.49 78.791C407.758 78.0455 408.144 77.4768 408.646 77.0851C409.151 76.6902 409.758 76.4928 410.466 76.4928C411.173 76.4928 411.778 76.6902 412.28 77.0851C412.786 77.4768 413.171 78.0455 413.437 78.791C413.705 79.5334 413.839 80.4289 413.839 81.4777C413.839 82.5329 413.707 83.4332 413.441 84.1787C413.176 84.9211 412.792 85.4881 412.29 85.8799C411.788 86.2684 411.179 86.4627 410.466 86.4627ZM410.466 85.4202C411.173 85.4202 411.723 85.079 412.115 84.3967C412.506 83.7143 412.702 82.7414 412.702 81.4777C412.702 80.6374 412.612 79.9219 412.432 79.3312C412.255 78.7404 411.999 78.2903 411.664 77.9807C411.333 77.6711 410.933 77.5163 410.466 77.5163C409.764 77.5163 409.216 77.8622 408.821 78.5541C408.426 79.2427 408.229 80.2173 408.229 81.4777C408.229 82.318 408.317 83.032 408.494 83.6196C408.671 84.2071 408.926 84.6542 409.257 84.9606C409.592 85.267 409.995 85.4202 410.466 85.4202ZM418.673 86.4627C418.117 86.4627 417.616 86.3521 417.171 86.131C416.725 85.9099 416.368 85.6066 416.1 85.2212C415.831 84.8358 415.684 84.3967 415.659 83.9039H416.796C416.84 84.343 417.039 84.7063 417.393 84.9937C417.75 85.2781 418.177 85.4202 418.673 85.4202C419.071 85.4202 419.425 85.327 419.734 85.1406C420.047 84.9543 420.292 84.6984 420.469 84.373C420.649 84.0445 420.739 83.6733 420.739 83.2594C420.739 82.8361 420.646 82.4586 420.459 82.1269C420.276 81.7921 420.023 81.5283 419.701 81.3356C419.379 81.1429 419.011 81.045 418.597 81.0418C418.3 81.0386 417.995 81.0844 417.682 81.1792C417.37 81.2708 417.112 81.3893 416.91 81.5346L415.811 81.4019L416.398 76.6255H421.44V77.668H417.384L417.043 80.53H417.1C417.299 80.3721 417.548 80.241 417.848 80.1367C418.148 80.0325 418.461 79.9804 418.786 79.9804C419.38 79.9804 419.909 80.1225 420.374 80.4068C420.841 80.688 421.208 81.0734 421.473 81.563C421.742 82.0527 421.876 82.6118 421.876 83.2405C421.876 83.8597 421.737 84.4125 421.459 84.899C421.184 85.3823 420.805 85.7646 420.322 86.0457C419.838 86.3237 419.289 86.4627 418.673 86.4627ZM427.606 82.4444C427.597 81.92 427.682 81.4983 427.862 81.1792C428.042 80.8602 428.276 80.628 428.563 80.4826C428.854 80.3373 429.16 80.2647 429.483 80.2647C429.805 80.2647 430.099 80.3358 430.364 80.4779C430.632 80.6169 430.939 80.8365 431.283 81.1366C431.517 81.3387 431.703 81.4809 431.842 81.563C431.984 81.6452 432.139 81.6862 432.307 81.6862C432.578 81.6862 432.793 81.5883 432.951 81.3925C433.109 81.1934 433.185 80.906 433.179 80.53H434.202C434.212 81.0544 434.126 81.4762 433.946 81.7952C433.769 82.1143 433.536 82.3465 433.245 82.4918C432.954 82.6371 432.648 82.7098 432.326 82.7098C432.003 82.7098 431.71 82.6403 431.444 82.5013C431.179 82.3591 430.872 82.138 430.525 81.8379C430.294 81.6357 430.108 81.4935 429.966 81.4114C429.824 81.3293 429.669 81.2882 429.501 81.2882C429.246 81.2882 429.034 81.3782 428.867 81.5583C428.702 81.7352 428.623 82.0306 428.63 82.4444H427.606ZM440.231 76.6255H441.633L444.931 84.681H445.045L448.343 76.6255H449.746V86.33H448.646V78.9568H448.552L445.519 86.33H444.458L441.425 78.9568H441.33V86.33H440.231V76.6255ZM454.092 86.5006C453.631 86.5006 453.212 86.4137 452.836 86.24C452.461 86.0631 452.162 85.8088 451.941 85.4771C451.72 85.1422 451.609 84.7379 451.609 84.264C451.609 83.847 451.691 83.509 451.856 83.25C452.02 82.9878 452.239 82.7824 452.514 82.6339C452.789 82.4855 453.092 82.3749 453.424 82.3023C453.759 82.2264 454.095 82.1664 454.433 82.1222C454.876 82.0653 455.234 82.0227 455.509 81.9942C455.787 81.9627 455.989 81.9105 456.116 81.8379C456.245 81.7652 456.31 81.6389 456.31 81.4588V81.4209C456.31 80.9533 456.182 80.5901 455.926 80.331C455.673 80.072 455.289 79.9425 454.775 79.9425C454.241 79.9425 453.822 80.0593 453.519 80.2931C453.216 80.5269 453.002 80.7764 452.879 81.0418L451.818 80.6627C452.007 80.2204 452.26 79.8761 452.576 79.6297C452.895 79.3801 453.242 79.2064 453.618 79.1085C453.997 79.0074 454.37 78.9568 454.737 78.9568C454.97 78.9568 455.239 78.9853 455.542 79.0421C455.849 79.0958 456.144 79.208 456.428 79.3786C456.716 79.5492 456.954 79.8066 457.144 80.151C457.333 80.4953 457.428 80.9565 457.428 81.5346V86.33H456.31V85.3444H456.253C456.177 85.5024 456.051 85.6714 455.874 85.8514C455.697 86.0315 455.462 86.1847 455.168 86.3111C454.874 86.4374 454.515 86.5006 454.092 86.5006ZM454.263 85.496C454.705 85.496 455.078 85.4092 455.381 85.2354C455.687 85.0617 455.918 84.8374 456.073 84.5625C456.231 84.2877 456.31 83.9987 456.31 83.6954V82.6719C456.262 82.7287 456.158 82.7808 455.997 82.8282C455.839 82.8725 455.656 82.9119 455.447 82.9467C455.242 82.9783 455.041 83.0067 454.846 83.032C454.653 83.0541 454.497 83.0731 454.376 83.0889C454.086 83.1268 453.814 83.1884 453.561 83.2737C453.312 83.3558 453.11 83.4806 452.955 83.648C452.803 83.8123 452.727 84.0366 452.727 84.3209C452.727 84.7094 452.871 85.0032 453.159 85.2022C453.449 85.3981 453.817 85.496 454.263 85.496ZM459.469 86.33V79.0516H460.55V80.151H460.625C460.758 79.7908 460.998 79.4986 461.346 79.2743C461.693 79.05 462.085 78.9379 462.521 78.9379C462.603 78.9379 462.706 78.9395 462.829 78.9426C462.952 78.9458 463.045 78.9505 463.108 78.9568V80.0941C463.071 80.0846 462.984 80.0704 462.848 80.0514C462.715 80.0293 462.575 80.0183 462.426 80.0183C462.072 80.0183 461.756 80.0925 461.478 80.241C461.204 80.3863 460.986 80.5885 460.824 80.8475C460.667 81.1034 460.588 81.3956 460.588 81.7241V86.33H459.469ZM467.169 86.4817C466.487 86.4817 465.899 86.3205 465.407 85.9983C464.914 85.6761 464.535 85.2323 464.269 84.6668C464.004 84.1013 463.871 83.4553 463.871 82.7287C463.871 81.9895 464.007 81.3372 464.279 80.7717C464.554 80.2031 464.936 79.7592 465.426 79.4402C465.918 79.1179 466.493 78.9568 467.15 78.9568C467.662 78.9568 468.123 79.0516 468.534 79.2411C468.945 79.4307 469.281 79.6961 469.543 80.0372C469.806 80.3784 469.968 80.7764 470.031 81.2313H468.913C468.828 80.8996 468.638 80.6059 468.345 80.35C468.054 80.0909 467.662 79.9614 467.169 79.9614C466.733 79.9614 466.351 80.0751 466.023 80.3026C465.697 80.5269 465.443 80.8444 465.26 81.255C465.08 81.6625 464.99 82.1411 464.99 82.6908C464.99 83.2531 465.078 83.7428 465.255 84.1598C465.435 84.5768 465.688 84.9006 466.013 85.1312C466.342 85.3618 466.727 85.4771 467.169 85.4771C467.46 85.4771 467.724 85.4265 467.961 85.3254C468.198 85.2244 468.398 85.079 468.563 84.8895C468.727 84.7 468.844 84.4725 468.913 84.2071H470.031C469.968 84.6368 469.812 85.0238 469.562 85.3681C469.316 85.7093 468.989 85.9809 468.581 86.1831C468.177 86.3821 467.706 86.4817 467.169 86.4817ZM472.785 81.9516V86.33H471.666V76.6255H472.785V80.1889H472.879C473.05 79.8129 473.306 79.5144 473.647 79.2933C473.991 79.069 474.449 78.9568 475.021 78.9568C475.517 78.9568 475.951 79.0563 476.324 79.2554C476.697 79.4512 476.986 79.7529 477.191 80.1604C477.4 80.5648 477.504 81.0797 477.504 81.7052V86.33H476.386V81.781C476.386 81.2029 476.236 80.7559 475.936 80.44C475.639 80.1209 475.226 79.9614 474.699 79.9614C474.332 79.9614 474.004 80.0388 473.713 80.1936C473.426 80.3484 473.198 80.5743 473.031 80.8712C472.867 81.1682 472.785 81.5283 472.785 81.9516ZM486.696 76.6255V86.33H485.521V77.8575H485.464L483.094 79.4307V78.2366L485.521 76.6255H486.696ZM489.259 84.3398V83.3732L493.524 76.6255H494.225V78.1229H493.751L490.529 83.2215V83.2973H496.272V84.3398H489.259ZM493.827 86.33V84.046V83.5959V76.6255H494.946V86.33H493.827Z" fill="black"/>
<rect x="508.69" y="45.13" width="50" height="50" rx="25" fill="#EB662B" fill-opacity="0.05"/>
<path d="M569.325 56.2086V54.8471H577.438V56.2086H574.167V65.33H572.59V56.2086H569.325ZM581.279 65.4887C580.542 65.4887 579.899 65.3198 579.35 64.982C578.8 64.6441 578.374 64.1715 578.07 63.5641C577.766 62.9567 577.614 62.2469 577.614 61.4347C577.614 60.6192 577.766 59.906 578.07 59.2952C578.374 58.6843 578.8 58.21 579.35 57.8722C579.899 57.5343 580.542 57.3654 581.279 57.3654C582.016 57.3654 582.66 57.5343 583.209 57.8722C583.758 58.21 584.185 58.6843 584.489 59.2952C584.792 59.906 584.944 60.6192 584.944 61.4347C584.944 62.2469 584.792 62.9567 584.489 63.5641C584.185 64.1715 583.758 64.6441 583.209 64.982C582.66 65.3198 582.016 65.4887 581.279 65.4887ZM581.284 64.2039C581.762 64.2039 582.158 64.0777 582.472 63.8251C582.786 63.5726 583.018 63.2365 583.168 62.8168C583.322 62.397 583.398 61.9347 583.398 61.4296C583.398 60.928 583.322 60.4673 583.168 60.0476C583.018 59.6245 582.786 59.2849 582.472 59.029C582.158 58.7731 581.762 58.6451 581.284 58.6451C580.803 58.6451 580.404 58.7731 580.087 59.029C579.773 59.2849 579.539 59.6245 579.385 60.0476C579.235 60.4673 579.16 60.928 579.16 61.4296C579.16 61.9347 579.235 62.397 579.385 62.8168C579.539 63.2365 579.773 63.5726 580.087 63.8251C580.404 64.0777 580.803 64.2039 581.284 64.2039ZM591.633 62.0694V57.4678H593.169V65.33H591.664V63.9685H591.582C591.401 64.3882 591.111 64.738 590.712 65.0178C590.316 65.2942 589.823 65.4324 589.232 65.4324C588.727 65.4324 588.28 65.3215 587.891 65.0997C587.506 64.8745 587.202 64.5417 586.98 64.1015C586.762 63.6613 586.653 63.1171 586.653 62.4687V57.4678H588.183V62.2844C588.183 62.8202 588.331 63.2467 588.628 63.5641C588.925 63.8814 589.311 64.0401 589.785 64.0401C590.072 64.0401 590.357 63.9685 590.64 63.8251C590.927 63.6818 591.164 63.4651 591.351 63.1751C591.543 62.885 591.636 62.5165 591.633 62.0694ZM595.225 65.33V57.4678H596.704V58.7167H596.786C596.929 58.2936 597.182 57.9609 597.544 57.7186C597.909 57.4729 598.322 57.3501 598.782 57.3501C598.878 57.3501 598.991 57.3535 599.12 57.3603C599.253 57.3671 599.357 57.3757 599.432 57.3859V58.8498C599.371 58.8328 599.262 58.814 599.105 58.7935C598.948 58.7696 598.791 58.7577 598.634 58.7577C598.272 58.7577 597.95 58.8345 597.667 58.988C597.387 59.1382 597.165 59.348 597.001 59.6176C596.837 59.8838 596.755 60.1875 596.755 60.5287V65.33H595.225ZM604.177 56.2086V54.8471H612.29V56.2086H609.02V65.33H607.443V56.2086H604.177ZM614.027 68.2783C613.798 68.2783 613.59 68.2596 613.403 68.222C613.215 68.1879 613.075 68.1504 612.983 68.1094L613.351 66.8554C613.631 66.9304 613.88 66.9629 614.099 66.9526C614.317 66.9424 614.51 66.8605 614.677 66.7069C614.848 66.5534 614.998 66.3026 615.127 65.9545L615.317 65.4324L612.44 57.4678H614.078L616.069 63.5692H616.151L618.142 57.4678H619.785L616.545 66.3793C616.395 66.7888 616.204 67.1352 615.972 67.4184C615.74 67.7051 615.464 67.92 615.143 68.0634C614.822 68.2067 614.45 68.2783 614.027 68.2783ZM621.224 68.2783V57.4678H622.718V58.7423H622.846C622.935 58.5785 623.063 58.3892 623.23 58.1742C623.397 57.9592 623.63 57.7715 623.926 57.6111C624.223 57.4473 624.616 57.3654 625.104 57.3654C625.738 57.3654 626.305 57.5258 626.803 57.8466C627.301 58.1673 627.692 58.6297 627.975 59.2337C628.262 59.8377 628.405 60.5646 628.405 61.4143C628.405 62.264 628.264 62.9925 627.98 63.5999C627.697 64.2039 627.308 64.6697 626.813 64.9973C626.319 65.3215 625.754 65.4836 625.119 65.4836C624.641 65.4836 624.251 65.4034 623.947 65.243C623.647 65.0826 623.411 64.8949 623.241 64.68C623.07 64.465 622.939 64.2739 622.846 64.1067H622.754V68.2783H621.224ZM622.724 61.3989C622.724 61.9517 622.804 62.4363 622.964 62.8526C623.125 63.2689 623.357 63.5948 623.66 63.8303C623.964 64.0623 624.336 64.1783 624.776 64.1783C625.233 64.1783 625.616 64.0572 625.923 63.8149C626.23 63.5692 626.462 63.2365 626.619 62.8168C626.779 62.397 626.859 61.9244 626.859 61.3989C626.859 60.8802 626.781 60.4144 626.624 60.0015C626.47 59.5886 626.238 59.2627 625.928 59.0239C625.621 58.785 625.237 58.6656 624.776 58.6656C624.332 58.6656 623.957 58.7799 623.65 59.0085C623.346 59.2371 623.116 59.5562 622.959 59.9657C622.802 60.3752 622.724 60.8529 622.724 61.3989ZM633.508 65.4887C632.734 65.4887 632.067 65.3232 631.507 64.9922C630.951 64.6578 630.521 64.1886 630.217 63.5846C629.917 62.9772 629.767 62.2657 629.767 61.4501C629.767 60.6448 629.917 59.935 630.217 59.3207C630.521 58.7065 630.944 58.2271 631.487 57.8824C632.033 57.5378 632.671 57.3654 633.401 57.3654C633.845 57.3654 634.275 57.4388 634.691 57.5855C635.107 57.7323 635.481 57.9626 635.812 58.2765C636.143 58.5905 636.404 58.9983 636.595 59.4999C636.786 59.9981 636.882 60.6038 636.882 61.317V61.8596H630.632V60.713H635.382C635.382 60.3103 635.3 59.9537 635.136 59.6432C634.972 59.3293 634.742 59.0819 634.445 58.901C634.152 58.7202 633.807 58.6297 633.411 58.6297C632.981 58.6297 632.606 58.7355 632.285 58.9471C631.968 59.1552 631.722 59.4282 631.548 59.7661C631.377 60.1005 631.292 60.4639 631.292 60.8563V61.7521C631.292 62.2776 631.384 62.7246 631.569 63.0932C631.756 63.4617 632.017 63.7432 632.352 63.9377C632.686 64.1288 633.077 64.2244 633.524 64.2244C633.814 64.2244 634.078 64.1834 634.317 64.1015C634.556 64.0162 634.763 63.89 634.937 63.7228C635.111 63.5556 635.244 63.3491 635.336 63.1034L636.784 63.3645C636.668 63.791 636.46 64.1647 636.16 64.4854C635.863 64.8028 635.489 65.0502 635.039 65.2276C634.592 65.4017 634.082 65.4887 633.508 65.4887Z" fill="#05073C"/>
<path d="M570.315 86.33H569.042L572.723 76.3073H573.975L577.656 86.33H576.383L573.388 77.8929H573.31L570.315 86.33ZM570.785 82.4149H575.913V83.4915H570.785V82.4149ZM580.215 76.3073V86.33H579.06V76.3073H580.215ZM583.486 76.3073V86.33H582.331V76.3073H583.486ZM592.746 78.813V79.7918H588.85V78.813H592.746ZM589.986 77.012H591.141V84.1767C591.141 84.503 591.188 84.7477 591.283 84.9108C591.381 85.0707 591.505 85.1783 591.655 85.2338C591.808 85.286 591.97 85.3121 592.139 85.3121C592.266 85.3121 592.371 85.3056 592.452 85.2925C592.534 85.2762 592.599 85.2631 592.648 85.2534L592.883 86.2909C592.805 86.3202 592.695 86.3496 592.555 86.379C592.415 86.4116 592.237 86.4279 592.022 86.4279C591.695 86.4279 591.376 86.3577 591.063 86.2175C590.753 86.0772 590.495 85.8635 590.289 85.5764C590.087 85.2892 589.986 84.9271 589.986 84.4899V77.012ZM597.456 86.4866C596.778 86.4866 596.182 86.3251 595.67 86.0021C595.161 85.6791 594.763 85.2273 594.476 84.6465C594.192 84.0658 594.05 83.3871 594.05 82.6106C594.05 81.8276 594.192 81.1441 594.476 80.5601C594.763 79.9761 595.161 79.5226 595.67 79.1996C596.182 78.8766 596.778 78.7151 597.456 78.7151C598.135 78.7151 598.729 78.8766 599.238 79.1996C599.75 79.5226 600.148 79.9761 600.432 80.5601C600.719 81.1441 600.863 81.8276 600.863 82.6106C600.863 83.3871 600.719 84.0658 600.432 84.6465C600.148 85.2273 599.75 85.6791 599.238 86.0021C598.729 86.3251 598.135 86.4866 597.456 86.4866ZM597.456 85.4491C597.972 85.4491 598.396 85.317 598.729 85.0527C599.062 84.7884 599.308 84.441 599.468 84.0103C599.628 83.5796 599.708 83.1131 599.708 82.6106C599.708 82.1082 599.628 81.64 599.468 81.2061C599.308 80.7722 599.062 80.4214 598.729 80.1539C598.396 79.8864 597.972 79.7526 597.456 79.7526C596.941 79.7526 596.517 79.8864 596.184 80.1539C595.851 80.4214 595.605 80.7722 595.445 81.2061C595.285 81.64 595.205 82.1082 595.205 82.6106C595.205 83.1131 595.285 83.5796 595.445 84.0103C595.605 84.441 595.851 84.7884 596.184 85.0527C596.517 85.317 596.941 85.4491 597.456 85.4491ZM607.363 83.2566V78.813H608.518V86.33H607.363V85.0576H607.285C607.108 85.4393 606.834 85.764 606.462 86.0315C606.09 86.2958 605.621 86.4279 605.053 86.4279C604.583 86.4279 604.166 86.3251 603.8 86.1196C603.435 85.9108 603.148 85.5976 602.939 85.1799C602.73 84.7591 602.626 84.2289 602.626 83.5894V78.813H603.781V83.5111C603.781 84.0592 603.934 84.4964 604.241 84.8227C604.551 85.149 604.945 85.3121 605.425 85.3121C605.712 85.3121 606.004 85.2387 606.301 85.0919C606.601 84.945 606.852 84.7199 607.055 84.4165C607.26 84.1131 607.363 83.7265 607.363 83.2566ZM610.633 86.33V78.813H611.749V79.9484H611.827C611.964 79.5764 612.212 79.2746 612.571 79.043C612.93 78.8113 613.335 78.6955 613.785 78.6955C613.87 78.6955 613.976 78.6971 614.103 78.7004C614.23 78.7037 614.327 78.7086 614.392 78.7151V79.8896C614.353 79.8798 614.263 79.8652 614.123 79.8456C613.986 79.8227 613.84 79.8113 613.687 79.8113C613.322 79.8113 612.995 79.888 612.708 80.0413C612.424 80.1914 612.199 80.4002 612.033 80.6678C611.87 80.932 611.788 81.2338 611.788 81.5731V86.33H610.633Z" fill="#717171"/>
<rect x="743.05" y="40.13" width="136.95" height="60" rx="30" fill="#EB662B"/>
<path d="M807.194 67.2752C807.139 66.7828 806.91 66.4013 806.508 66.1308C806.105 65.8568 805.599 65.7198 804.989 65.7198C804.552 65.7198 804.174 65.7892 803.855 65.9279C803.536 66.0632 803.288 66.2504 803.111 66.4897C802.937 66.7255 802.851 66.9943 802.851 67.296C802.851 67.5492 802.91 67.7676 803.028 67.9514C803.149 68.1352 803.307 68.2896 803.501 68.4144C803.699 68.5358 803.91 68.6381 804.136 68.7213C804.361 68.8011 804.578 68.867 804.786 68.919L805.826 69.1895C806.166 69.2727 806.515 69.3854 806.872 69.5276C807.229 69.6698 807.56 69.8571 807.865 70.0894C808.17 70.3218 808.417 70.6096 808.604 70.9529C808.795 71.2962 808.89 71.7072 808.89 72.1858C808.89 72.7892 808.734 73.325 808.422 73.7931C808.113 74.2613 807.664 74.6306 807.075 74.9011C806.489 75.1716 805.779 75.3069 804.947 75.3069C804.149 75.3069 803.459 75.1803 802.877 74.9271C802.294 74.674 801.838 74.315 801.509 73.8503C801.179 73.3822 800.997 72.8273 800.962 72.1858H802.575C802.606 72.5707 802.731 72.8915 802.95 73.1481C803.171 73.4013 803.454 73.5903 803.797 73.7151C804.144 73.8365 804.524 73.8972 804.937 73.8972C805.391 73.8972 805.795 73.8261 806.149 73.6839C806.506 73.5382 806.787 73.3371 806.991 73.0805C807.196 72.8204 807.298 72.5169 807.298 72.1701C807.298 71.8546 807.208 71.5962 807.028 71.3951C806.851 71.1939 806.61 71.0275 806.305 70.8957C806.003 70.7639 805.661 70.6477 805.28 70.5472L804.021 70.2038C803.168 69.9715 802.492 69.6299 801.992 69.1791C801.496 68.7282 801.249 68.1318 801.249 67.3896C801.249 66.7758 801.415 66.24 801.748 65.7823C802.081 65.3245 802.532 64.969 803.1 64.7159C803.669 64.4593 804.311 64.3309 805.025 64.3309C805.746 64.3309 806.383 64.4575 806.934 64.7107C807.489 64.9638 807.926 65.3124 808.245 65.7563C808.564 66.1967 808.731 66.703 808.744 67.2752H807.194ZM814.13 75.2913C813.342 75.2913 812.664 75.1231 812.096 74.7867C811.53 74.4468 811.093 73.97 810.785 73.3562C810.48 72.7389 810.327 72.0158 810.327 71.187C810.327 70.3686 810.48 69.6472 810.785 69.023C811.093 68.3988 811.524 67.9116 812.075 67.5613C812.63 67.211 813.278 67.0359 814.02 67.0359C814.471 67.0359 814.908 67.1105 815.331 67.2596C815.754 67.4087 816.134 67.6428 816.47 67.9618C816.807 68.2809 817.072 68.6953 817.266 69.2051C817.461 69.7114 817.558 70.327 817.558 71.0517V71.6031H811.206V70.4379H816.034C816.034 70.0287 815.95 69.6663 815.784 69.3507C815.617 69.0317 815.383 68.7803 815.082 68.5965C814.783 68.4127 814.433 68.3208 814.031 68.3208C813.594 68.3208 813.212 68.4283 812.886 68.6433C812.564 68.8548 812.314 69.1323 812.137 69.4756C811.964 69.8154 811.877 70.1848 811.877 70.5836V71.4939C811.877 72.028 811.971 72.4823 812.158 72.8568C812.349 73.2313 812.614 73.5174 812.954 73.7151C813.294 73.9093 813.691 74.0064 814.145 74.0064C814.44 74.0064 814.709 73.9648 814.952 73.8816C815.194 73.7949 815.404 73.6665 815.581 73.4966C815.758 73.3267 815.893 73.1169 815.987 72.8672L817.459 73.1325C817.341 73.566 817.129 73.9457 816.824 74.2717C816.523 74.5942 816.143 74.8456 815.685 75.026C815.231 75.2028 814.712 75.2913 814.13 75.2913ZM821.609 75.3069C821.102 75.3069 820.645 75.2132 820.235 75.026C819.826 74.8352 819.502 74.5595 819.263 74.1989C819.027 73.8382 818.909 73.3961 818.909 72.8724C818.909 72.4216 818.996 72.0505 819.169 71.7592C819.342 71.4679 819.576 71.2373 819.871 71.0674C820.166 70.8974 820.495 70.7691 820.86 70.6824C821.224 70.5957 821.595 70.5298 821.973 70.4847C822.451 70.4293 822.84 70.3842 823.138 70.3495C823.436 70.3113 823.653 70.2507 823.788 70.1674C823.923 70.0842 823.991 69.949 823.991 69.7617V69.7253C823.991 69.271 823.863 68.919 823.606 68.6693C823.353 68.4196 822.975 68.2948 822.472 68.2948C821.948 68.2948 821.536 68.4109 821.234 68.6433C820.936 68.8722 820.73 69.1271 820.615 69.408L819.153 69.075C819.327 68.5895 819.58 68.1977 819.913 67.8994C820.249 67.5977 820.636 67.3792 821.073 67.244C821.51 67.1053 821.969 67.0359 822.451 67.0359C822.77 67.0359 823.108 67.0741 823.466 67.1504C823.826 67.2232 824.163 67.3584 824.475 67.5561C824.79 67.7538 825.049 68.0364 825.25 68.404C825.451 68.7681 825.552 69.2415 825.552 69.8241V75.13H824.033V74.0376H823.97C823.87 74.2388 823.719 74.4364 823.518 74.6306C823.317 74.8248 823.058 74.9861 822.743 75.1144C822.427 75.2427 822.049 75.3069 821.609 75.3069ZM821.947 74.0584C822.377 74.0584 822.744 73.9735 823.05 73.8035C823.358 73.6336 823.592 73.4117 823.752 73.1377C823.915 72.8603 823.996 72.5638 823.996 72.2482V71.2182C823.941 71.2737 823.833 71.3257 823.674 71.3743C823.518 71.4193 823.339 71.4592 823.138 71.4939C822.937 71.5251 822.741 71.5546 822.55 71.5823C822.359 71.6066 822.2 71.6274 822.072 71.6448C821.77 71.6829 821.494 71.7471 821.244 71.8372C820.998 71.9274 820.801 72.0574 820.651 72.2274C820.506 72.3938 820.433 72.6158 820.433 72.8932C820.433 73.2781 820.575 73.5694 820.86 73.7671C821.144 73.9613 821.506 74.0584 821.947 74.0584ZM827.623 75.13V67.1399H829.127V68.4092H829.21C829.355 67.9792 829.612 67.6411 829.98 67.3948C830.351 67.1451 830.77 67.0203 831.239 67.0203C831.336 67.0203 831.45 67.0238 831.582 67.0307C831.717 67.0376 831.823 67.0463 831.899 67.0567V68.5445C831.837 68.5271 831.726 68.508 831.566 68.4872C831.407 68.463 831.247 68.4508 831.088 68.4508C830.72 68.4508 830.392 68.5288 830.105 68.6849C829.82 68.8375 829.595 69.0508 829.428 69.3247C829.262 69.5952 829.179 69.9039 829.179 70.2507V75.13H827.623ZM836.325 75.2913C835.551 75.2913 834.886 75.1161 834.327 74.7659C833.772 74.4121 833.346 73.9249 833.048 73.3042C832.749 72.6834 832.6 71.9725 832.6 71.1714C832.6 70.3599 832.753 69.6438 833.058 69.023C833.363 68.3988 833.793 67.9116 834.348 67.5613C834.903 67.211 835.557 67.0359 836.309 67.0359C836.916 67.0359 837.457 67.1486 837.932 67.374C838.407 67.596 838.79 67.9081 839.082 68.3104C839.376 68.7126 839.552 69.1825 839.607 69.7201H838.093C838.01 69.3455 837.819 69.023 837.521 68.7525C837.226 68.482 836.831 68.3468 836.335 68.3468C835.902 68.3468 835.522 68.4612 835.196 68.6901C834.873 68.9155 834.622 69.238 834.442 69.6576C834.261 70.0738 834.171 70.5662 834.171 71.135C834.171 71.7176 834.26 72.2204 834.436 72.6435C834.613 73.0666 834.863 73.3943 835.185 73.6267C835.511 73.859 835.895 73.9752 836.335 73.9752C836.63 73.9752 836.897 73.9214 837.136 73.8139C837.379 73.703 837.582 73.5452 837.745 73.3406C837.911 73.136 838.027 72.8897 838.093 72.6019H839.607C839.552 73.1186 839.383 73.5799 839.102 73.9856C838.822 74.3913 838.445 74.7104 837.974 74.9427C837.506 75.1751 836.956 75.2913 836.325 75.2913ZM842.826 70.3859V75.13H841.27V64.4766H842.805V68.4404H842.904C843.091 68.0104 843.377 67.6688 843.762 67.4156C844.147 67.1625 844.65 67.0359 845.271 67.0359C845.819 67.0359 846.297 67.1486 846.706 67.374C847.119 67.5994 847.438 67.9358 847.663 68.3832C847.892 68.8271 848.007 69.3819 848.007 70.0478V75.13H846.451V70.2351C846.451 69.649 846.301 69.1947 845.999 68.8722C845.697 68.5462 845.278 68.3832 844.74 68.3832C844.372 68.3832 844.043 68.4612 843.752 68.6173C843.464 68.7733 843.237 69.0022 843.07 69.3039C842.907 69.6022 842.826 69.9628 842.826 70.3859Z" fill="white"/>
</g>
<defs>
<filter id="filter0_d_2103_5873" x="0" y="0.130005" width="930" height="160" filterUnits="userSpaceOnUse" color-interpolation-filters="sRGB">
<feFlood flood-opacity="0" result="BackgroundImageFix"/>
<feColorMatrix in="SourceAlpha" type="matrix" values="0 0 0 0 0 0 0 0 0 0 0 0 0 0 0 0 0 0 127 0" result="hardAlpha"/>
<feOffset dy="10"/>
<feGaussianBlur stdDeviation="20"/>
<feComposite in2="hardAlpha" operator="out"/>
<feColorMatrix type="matrix" values="0 0 0 0 0 0 0 0 0 0 0 0 0 0 0 0 0 0 0.05 0"/>
<feBlend mode="normal" in2="BackgroundImageFix" result="effect1_dropShadow_2103_5873"/>
<feBlend mode="normal" in="SourceGraphic" in2="effect1_dropShadow_2103_5873" result="shape"/>
</filter>
</defs>
</svg>
